<?xml version="1.0" standalone="no"?>
<!DOCTYPE svg PUBLIC "-//W3C//DTD SVG 20010904//EN"
 "http://www.w3.org/TR/2001/REC-SVG-20010904/DTD/svg10.dtd">
<svg version="1.0" xmlns="http://www.w3.org/2000/svg"
 width="512.000000pt" height="512.000000pt" viewBox="0 0 512.000000 512.000000"
 preserveAspectRatio="xMidYMid meet">

<g transform="translate(0.000000,512.000000) scale(0.100000,-0.100000)"
fill="#000000" stroke="none">
<path d="M3315 4240 c-33 -14 -1633 -1622 -1644 -1652 -7 -19 -7 -37 0 -55 5
-16 375 -394 822 -841 647 -647 818 -813 843 -818 65 -12 132 55 117 117 -3
14 -319 338 -777 797 l-771 772 771 773 c458 458 774 782 777 796 17 72 -68
141 -138 111z"/>
</g>
</svg>
