<?xml version="1.0" standalone="no"?>
<!DOCTYPE svg PUBLIC "-//W3C//DTD SVG 20010904//EN"
 "http://www.w3.org/TR/2001/REC-SVG-20010904/DTD/svg10.dtd">
<svg version="1.0" xmlns="http://www.w3.org/2000/svg"
 width="512.000000pt" height="512.000000pt" viewBox="0 0 512.000000 512.000000"
 preserveAspectRatio="xMidYMid meet">

<g transform="translate(0.000000,512.000000) scale(0.100000,-0.100000)"
fill="#000000" stroke="none">
<path d="M2406 5110 c-259 -41 -504 -178 -662 -372 -147 -179 -226 -376 -249
-620 l-7 -68 -161 0 c-108 0 -180 -5 -216 -15 -190 -50 -348 -215 -386 -402
-7 -38 -71 -753 -141 -1590 -143 -1706 -139 -1594 -69 -1738 63 -130 167 -222
309 -274 l71 -26 1665 0 1665 0 71 26 c207 76 342 248 360 458 3 44 -39 585
-125 1596 -106 1250 -134 1542 -150 1596 -52 168 -200 309 -372 354 -36 10
-108 15 -216 15 l-161 0 -7 68 c-29 316 -160 569 -390 759 -113 93 -270 173
-410 209 -112 28 -315 40 -419 24z m343 -226 c81 -18 179 -58 255 -102 81 -48
210 -172 266 -259 84 -127 140 -297 140 -423 l0 -50 -850 0 -850 0 0 50 c0 28
7 86 16 128 51 249 221 470 451 586 178 89 380 114 572 70z m-1259 -1364 l0
-320 -64 0 c-49 0 -71 -5 -97 -23 -71 -48 -59 -157 21 -184 45 -15 440 -17
493 -2 41 11 77 56 77 97 0 36 -27 80 -60 97 -16 8 -55 15 -90 15 l-60 0 0
320 0 320 850 0 850 0 0 -319 0 -319 -74 -4 c-62 -3 -79 -7 -100 -27 -51 -48
-40 -142 20 -170 34 -15 494 -15 528 0 60 28 71 122 20 170 -21 20 -38 24
-100 27 l-74 4 0 320 0 320 163 -4 c139 -3 169 -6 208 -24 82 -38 149 -111
178 -194 13 -38 262 -2954 263 -3081 1 -133 -61 -232 -180 -291 l-67 -33
-1635 0 -1635 0 -67 33 c-119 59 -181 158 -180 291 1 42 58 746 127 1565 118
1407 126 1492 149 1541 31 69 83 125 142 154 69 35 94 39 252 40 l142 1 0
-320z"/>
</g>
</svg>
