<?xml version="1.0" standalone="no"?>
<!DOCTYPE svg PUBLIC "-//W3C//DTD SVG 20010904//EN"
 "http://www.w3.org/TR/2001/REC-SVG-20010904/DTD/svg10.dtd">
<svg version="1.0" xmlns="http://www.w3.org/2000/svg"
 width="512.000000pt" height="512.000000pt" viewBox="0 0 512.000000 512.000000"
 preserveAspectRatio="xMidYMid meet">

<g transform="translate(0.000000,512.000000) scale(0.100000,-0.100000)"
fill="#1e6fd9" stroke="none">
<path d="M1040 5107 c-49 -16 -133 -102 -148 -153 -18 -60 -18 -4728 0 -4788
16 -55 99 -138 154 -154 60 -17 2968 -17 3028 0 55 16 138 99 154 154 17 59
18 4728 0 4786 -6 22 -31 62 -55 88 -78 87 57 80 -1617 79 -1049 -1 -1491 -4
-1516 -12z m1280 -1587 l0 -1440 -640 0 -640 0 0 1415 0 1416 25 24 24 25 616
0 615 0 0 -1440z m1735 1415 l25 -24 0 -1416 0 -1415 -800 0 -800 0 0 1440 0
1440 775 0 776 0 24 -25z m-2855 -3110 c0 -88 2 -98 25 -120 l24 -25 536 0
535 0 0 -760 0 -760 -615 0 -616 0 -24 25 -25 24 0 856 0 855 80 0 80 0 0 -95z
m1120 55 l0 -40 -480 0 -480 0 0 40 0 40 480 0 480 0 0 -40z m1440 0 l0 -40
-640 0 -640 0 0 40 0 40 640 0 640 0 0 -40z m320 -815 l0 -856 -25 -24 -24
-25 -776 0 -775 0 0 760 0 760 695 0 696 0 24 25 c23 22 25 32 25 120 l0 95
80 0 80 0 0 -855z"/>
<path d="M1225 3655 l-25 -24 0 -671 0 -671 25 -24 24 -25 431 0 431 0 24 25
25 24 0 671 0 671 -25 24 -24 25 -431 0 -431 0 -24 -25z m775 -255 l0 -120
-320 0 -320 0 0 120 0 120 320 0 320 0 0 -120z m-560 -375 c0 -88 2 -98 25
-120 24 -25 26 -25 215 -25 189 0 191 0 215 25 23 22 25 32 25 120 l0 95 40 0
40 0 0 -360 0 -360 -320 0 -320 0 0 360 0 360 40 0 40 0 0 -95z m320 55 l0
-40 -80 0 -80 0 0 40 0 40 80 0 80 0 0 -40z"/>
</g>
</svg>
