<?xml version="1.0" standalone="no"?>
<!DOCTYPE svg PUBLIC "-//W3C//DTD SVG 20010904//EN"
 "http://www.w3.org/TR/2001/REC-SVG-20010904/DTD/svg10.dtd">
<svg version="1.0" xmlns="http://www.w3.org/2000/svg"
 width="512.000000pt" height="512.000000pt" viewBox="0 0 512.000000 512.000000"
 preserveAspectRatio="xMidYMid meet">

<g transform="translate(0.000000,512.000000) scale(0.100000,-0.100000)"
fill="#1e6fd9" stroke="none">
<path d="M4050 5113 c-136 -14 -302 -81 -416 -169 -144 -110 -296 -287 -359
-418 -61 -129 -86 -234 -92 -391 l-5 -140 -55 -105 c-66 -125 -161 -274 -251
-390 -78 -101 -1055 -1087 -1192 -1202 -121 -102 -293 -217 -440 -295 l-115
-61 -140 -5 c-264 -10 -440 -85 -649 -278 -119 -109 -194 -205 -246 -314 -56
-117 -77 -196 -86 -326 -11 -158 42 -370 107 -431 56 -53 60 -50 323 210 149
147 256 245 281 257 126 59 273 9 338 -115 26 -49 28 -62 25 -126 -4 -52 -11
-82 -28 -110 -13 -22 -129 -145 -257 -275 -250 -252 -254 -259 -212 -312 71
-91 394 -141 589 -93 87 22 218 80 287 127 66 46 204 179 274 266 140 175 211
379 208 600 l-1 101 61 116 c72 134 157 267 249 386 80 103 1047 1078 1187
1196 131 111 270 205 430 292 l130 70 145 5 c219 8 370 60 537 186 87 66 242
221 291 292 123 180 174 409 138 618 -21 118 -59 218 -98 254 -54 51 -66 43
-328 -216 -145 -144 -250 -240 -275 -252 -164 -77 -349 34 -363 217 -8 104 16
139 283 408 188 189 235 242 235 263 0 99 -272 185 -510 160z m201 -174 l69
-12 -185 -188 c-166 -168 -190 -197 -222 -265 -80 -168 -49 -348 82 -479 139
-139 336 -165 511 -68 28 16 128 105 235 210 l186 184 7 -33 c46 -227 -19
-443 -189 -625 -143 -154 -250 -228 -400 -279 -71 -24 -95 -27 -220 -28 -164
-1 -227 12 -352 75 -193 97 -336 269 -395 476 -29 103 -32 304 -5 403 29 106
91 218 169 310 227 263 447 362 709 319z m-962 -1265 c91 -169 216 -294 384
-384 42 -23 77 -43 77 -45 0 -1 -33 -22 -72 -46 -248 -146 -373 -256 -969
-855 -577 -580 -643 -656 -788 -901 -24 -40 -45 -73 -47 -73 -2 0 -16 24 -30
53 -89 176 -245 332 -421 421 -29 14 -53 28 -53 30 0 2 33 23 73 46 247 146
360 246 958 847 588 590 656 668 799 911 23 39 44 72 45 72 2 0 22 -34 44 -76z
m-2131 -1920 c376 -77 630 -408 609 -794 -12 -218 -96 -383 -290 -566 -126
-120 -232 -181 -365 -209 -88 -18 -149 -19 -243 -3 l-69 11 183 186 c204 207
238 255 259 380 47 276 -208 531 -483 482 -123 -21 -175 -57 -380 -258 l-186
-183 -12 69 c-41 249 51 469 285 680 121 109 273 188 407 210 85 14 203 12
285 -5z"/>
</g>
</svg>
