<svg version="1.1" id="Layer_1" xmlns="http://www.w3.org/2000/svg" xmlns:xlink="http://www.w3.org/1999/xlink" x="0px" y="0px"
	 width="100%" viewBox="0 0 512 512" enable-background="new 0 0 512 512" xml:space="preserve">
<path fill="#000000" opacity="1.000000" stroke="none" 
	d="
M513.000000,206.531342 
	C509.816284,228.437927 502.174774,248.321121 491.848572,267.241302 
	C483.878265,281.844879 474.123260,295.221619 463.901031,308.329193 
	C455.307343,319.348633 446.058716,329.829102 436.183044,339.570282 
	C416.355652,359.127533 395.700043,377.812195 373.579681,394.864960 
	C350.433075,412.708801 326.696442,429.659027 301.910492,445.124359 
	C289.671387,452.761017 277.255188,460.118286 264.823578,467.439789 
	C259.916412,470.329865 254.602036,470.505859 249.617584,467.647186 
	C226.294586,454.270844 203.640549,439.844116 181.459610,424.633881 
	C162.293045,411.490723 144.037033,397.173431 125.865509,382.741058 
	C117.951317,376.455353 110.390411,369.697754 102.942886,362.856384 
	C76.097603,338.196075 50.887596,312.080719 31.088871,281.201263 
	C17.644865,260.233093 6.812619,238.188416 2.510031,213.373291 
	C2.345505,212.424408 1.723780,211.554794 1.157552,210.324127 
	C1.000000,196.312439 1.000000,182.624878 1.256799,168.203888 
	C3.460950,165.360123 2.234035,162.646057 2.881429,160.281952 
	C6.522320,146.986435 10.467415,133.839050 17.080935,121.598648 
	C31.044483,95.754707 50.809242,75.711365 76.559029,61.664043 
	C107.890152,44.571938 141.529892,40.607235 176.060303,47.029381 
	C205.480026,52.501011 230.794006,66.829956 251.721466,88.496330 
	C253.511246,90.349297 254.322372,93.217422 257.245453,93.969719 
	C260.642792,92.360329 261.799927,88.724663 264.345917,86.374092 
	C275.744659,75.850250 288.037537,66.564621 301.931122,59.585728 
	C328.531494,46.224102 356.712067,42.226536 386.141266,45.541992 
	C401.451965,47.266880 416.040649,51.477692 429.938232,57.956062 
	C449.948975,67.284119 466.986725,80.504753 480.921173,97.721321 
	C491.029083,110.210052 498.951630,123.872726 504.603271,138.927292 
	C508.633850,149.663803 510.876648,160.805069 513.000000,172.000000 
	C513.000000,183.354233 513.000000,194.708450 513.000000,206.531342 
M178.351776,76.372711 
	C161.149216,71.157127 143.506927,70.709030 126.093208,73.780540 
	C98.831093,78.589165 75.827934,91.480598 57.353893,112.550606 
	C40.802738,131.427505 31.324974,153.300171 28.509809,177.919296 
	C25.877172,200.942200 31.339869,222.764023 41.276997,243.476730 
	C54.490616,271.018860 73.865669,294.140289 94.512306,316.236603 
	C106.537598,329.106232 119.906883,340.593719 133.225784,352.122650 
	C152.058334,368.424194 171.858063,383.462982 192.155182,397.843750 
	C211.784195,411.751099 232.038483,424.728424 252.576462,437.263580 
	C255.660385,439.145782 258.140747,439.239807 261.239349,437.358765 
	C282.399750,424.512665 303.252472,411.214874 323.582947,397.070190 
	C349.231079,379.225891 373.910980,360.093597 396.750519,338.861908 
	C423.180573,314.292480 448.157898,288.235596 466.076080,256.380280 
	C480.826416,230.156845 489.587555,202.616562 484.656189,172.075729 
	C480.740173,147.823135 470.377686,126.592003 453.561066,108.783295 
	C442.300842,96.858772 428.955780,87.657440 413.687103,81.255753 
	C392.182220,72.239395 369.980438,69.378578 347.107300,73.651123 
	C314.925323,79.662476 289.450958,96.387260 270.403381,123.019104 
	C262.191559,134.500687 251.725266,134.354950 243.322647,122.740631 
	C227.037781,100.231232 206.175415,84.131325 178.351776,76.372711 
z"/>
</svg>