<?xml version="1.0" standalone="no"?>
<!DOCTYPE svg PUBLIC "-//W3C//DTD SVG 20010904//EN"
 "http://www.w3.org/TR/2001/REC-SVG-20010904/DTD/svg10.dtd">
<svg version="1.0" xmlns="http://www.w3.org/2000/svg"
 width="512.000000pt" height="512.000000pt" viewBox="0 0 512.000000 512.000000"
 preserveAspectRatio="xMidYMid meet">

<g transform="translate(0.000000,512.000000) scale(0.100000,-0.100000)"
fill="#000000" stroke="none">
<path d="M1553 4574 c-54 -27 -63 -61 -63 -247 l0 -166 -235 -3 -235 -3 -27
-28 -28 -27 -3 -235 -3 -235 -166 0 c-187 0 -221 -9 -247 -65 -20 -41 -20 -49
0 -90 26 -56 60 -65 248 -65 l166 0 0 -210 0 -210 -166 0 c-188 0 -222 -9
-248 -65 -20 -41 -20 -49 0 -90 26 -56 60 -65 248 -65 l166 0 0 -210 0 -210
-166 0 c-188 0 -222 -9 -248 -65 -20 -41 -20 -49 0 -90 26 -56 60 -65 248 -65
l166 0 0 -210 0 -210 -166 0 c-188 0 -222 -9 -248 -65 -20 -41 -20 -49 0 -90
26 -56 60 -65 247 -65 l166 0 3 -235 3 -235 28 -27 27 -28 235 -3 235 -3 0
-166 c0 -187 9 -221 65 -247 41 -20 49 -20 90 0 56 26 65 60 65 248 l0 166
210 0 210 0 0 -166 c0 -188 9 -222 65 -248 41 -20 49 -20 90 0 56 26 65 60 65
248 l0 166 210 0 210 0 0 -166 c0 -188 9 -222 65 -248 41 -20 49 -20 90 0 56
26 65 60 65 248 l0 166 210 0 210 0 0 -166 c0 -188 9 -222 65 -248 41 -20 49
-20 90 0 56 26 65 60 65 247 l0 166 235 3 235 3 27 28 28 27 3 235 3 235 166
0 c187 0 221 9 247 65 20 41 20 49 0 90 -26 56 -60 65 -248 65 l-166 0 0 210
0 210 166 0 c188 0 222 9 248 65 20 41 20 49 0 90 -26 56 -60 65 -248 65
l-166 0 0 210 0 210 166 0 c188 0 222 9 248 65 20 41 20 49 0 90 -26 56 -60
65 -248 65 l-166 0 0 210 0 210 166 0 c188 0 222 9 248 65 20 41 20 49 0 90
-26 56 -60 65 -247 65 l-166 0 -3 235 -3 235 -28 27 -27 28 -235 3 -235 3 0
166 c0 187 -9 221 -65 247 -41 20 -49 20 -90 0 -56 -26 -65 -60 -65 -248 l0
-166 -210 0 -210 0 0 166 c0 188 -9 222 -65 248 -18 9 -38 16 -45 16 -7 0 -27
-7 -45 -16 -56 -26 -65 -60 -65 -248 l0 -166 -210 0 -210 0 0 166 c0 188 -9
222 -65 248 -41 20 -49 20 -90 0 -56 -26 -65 -60 -65 -248 l0 -166 -210 0
-210 0 0 166 c0 188 -9 222 -65 248 -41 20 -52 20 -92 0z m2392 -2014 l0
-1385 -1385 0 -1385 0 -3 1375 c-1 756 0 1381 3 1388 3 10 286 12 1387 10
l1383 -3 0 -1385z " fill="#1e6fd9"/>
</g>
</svg>
