<svg version="1.1" id="Layer_1" xmlns="http://www.w3.org/2000/svg" xmlns:xlink="http://www.w3.org/1999/xlink" x="0px" y="0px"
	 width="100%" viewBox="0 0 512 512" enable-background="new 0 0 512 512" xml:space="preserve">
<path fill="#000000" opacity="1.000000" stroke="none" 
	d="
M231.531342,1.000000 
	C236.180206,4.120086 241.357285,3.468451 246.045395,4.456135 
	C260.730957,7.550055 274.674469,12.652354 288.350952,18.661209 
	C305.326324,26.119455 320.797272,36.093925 334.946045,47.913372 
	C352.765106,62.798885 367.528412,80.460457 379.256958,100.558281 
	C392.612762,123.444641 401.230469,148.043976 405.197174,174.218903 
	C408.247070,194.344025 407.635223,214.434799 404.572205,234.574341 
	C401.248688,256.426880 394.630829,277.115448 384.534210,296.716309 
	C377.369171,310.626007 368.576141,323.482147 358.478180,335.412262 
	C356.321228,337.960571 356.650818,339.380768 358.857849,341.582825 
	C402.828125,385.453522 446.761780,429.361023 490.614441,473.349274 
	C498.119202,480.877258 506.371735,487.717346 512.790771,496.741302 
	C513.000000,502.258423 513.000000,507.516846 513.000000,513.000000 
	C507.982300,513.000000 502.962341,513.000000 497.471191,513.000000 
	C465.802185,484.411194 436.931671,453.467224 406.790802,423.808105 
	C385.295715,402.656586 364.110718,381.190002 342.772339,359.879059 
	C341.498444,358.606781 340.440674,357.015808 338.353790,356.500397 
	C330.729370,362.178009 323.281036,368.277954 315.295837,373.567505 
	C290.915863,389.717285 264.283600,400.142181 235.261810,404.482086 
	C222.756042,406.352173 210.203674,407.733246 197.617340,407.251068 
	C171.223724,406.239868 145.867310,400.565094 121.547607,389.867828 
	C103.896294,382.103760 87.653465,372.132263 73.014481,359.872406 
	C54.197037,344.113159 38.458603,325.464661 26.589836,303.830139 
	C14.629179,282.028076 5.626040,259.159790 2.580014,234.253006 
	C2.465326,233.315216 1.871622,232.436020 1.250569,231.264755 
	C1.000000,212.979111 1.000000,194.958206 1.248106,176.197266 
	C1.870221,174.557892 2.455587,173.688431 2.587606,172.754868 
	C6.918082,142.132248 18.235231,114.205963 35.583656,88.756966 
	C47.524471,71.240578 62.060543,56.031475 78.801216,42.973953 
	C100.136307,26.332842 123.826721,14.514576 149.952011,7.307635 
	C159.230652,4.748031 168.806381,3.772197 178.000000,1.000000 
	C195.687561,1.000000 213.375122,1.000000 231.531342,1.000000 
M383.160187,185.154831 
	C381.132935,169.326324 377.629883,153.891632 371.771515,138.977325 
	C362.160370,114.509018 348.358246,92.763290 329.348053,74.642082 
	C311.284180,57.422924 290.779602,43.772003 267.164307,35.060207 
	C247.875946,27.944653 228.044907,23.793207 207.489288,23.403372 
	C183.675781,22.951750 160.690079,27.181150 138.434021,35.726810 
	C114.661102,44.854904 93.795967,58.588760 76.001534,76.538658 
	C60.515213,92.160263 48.169983,110.153351 39.139904,130.490875 
	C29.991661,151.094543 24.781046,172.548004 23.497969,194.850052 
	C22.121637,218.773026 26.065128,242.057388 34.166897,264.693665 
	C42.877590,289.031250 56.700169,310.146210 74.238419,328.821014 
	C84.479584,339.725830 96.243660,348.991730 109.079231,356.836395 
	C144.439072,378.447113 182.637131,387.208008 223.890732,382.725952 
	C245.096512,380.422028 265.155823,374.304382 284.129639,364.759430 
	C308.514526,352.492432 329.017792,335.458466 345.912750,313.932251 
	C359.736572,296.319061 369.664368,276.701294 376.382690,255.540009 
	C383.553894,232.952332 384.742767,209.566986 383.160187,185.154831 
z"/>
</svg>