<?xml version="1.0" standalone="no"?>
<!DOCTYPE svg PUBLIC "-//W3C//DTD SVG 20010904//EN"
 "http://www.w3.org/TR/2001/REC-SVG-20010904/DTD/svg10.dtd">
<svg version="1.0" xmlns="http://www.w3.org/2000/svg"
 width="512.000000pt" height="512.000000pt" viewBox="0 0 512.000000 512.000000"
 preserveAspectRatio="xMidYMid meet">

<g transform="translate(0.000000,512.000000) scale(0.100000,-0.100000)"
fill="#000000" stroke="none">
<path d="M1625 4416 c-97 -31 -172 -96 -213 -184 l-27 -57 0 -1615 0 -1615 26
-55 c33 -70 99 -136 169 -169 l55 -26 890 0 890 0 60 28 c76 36 147 110 175
183 20 54 20 67 20 1654 0 1545 -1 1601 -19 1650 -37 98 -119 174 -221 204
-47 14 -152 16 -909 15 -661 0 -865 -3 -896 -13z m309 -182 c8 -70 34 -121 84
-166 69 -62 75 -63 512 -63 l395 0 57 28 c85 42 138 126 138 218 l0 39 128 0
c113 0 133 -3 172 -22 24 -13 58 -40 74 -61 l31 -39 3 -1594 c2 -1568 2 -1595
-17 -1633 -25 -48 -71 -87 -119 -101 -26 -8 -301 -10 -889 -8 l-851 3 -43 30
c-23 17 -53 50 -66 74 l-23 44 2 1588 3 1587 30 43 c17 23 50 53 74 66 40 21
57 23 171 23 l127 0 7 -56z m1046 24 c0 -52 -32 -95 -80 -108 -27 -7 -161 -10
-400 -8 l-360 3 -31 31 c-21 21 -32 44 -36 72 l-6 42 457 0 456 0 0 -32z" fill="#1e6fd9"/>
<path d="M2051 1074 c-27 -35 -26 -59 4 -89 l24 -25 444 0 c434 0 445 0 471
21 32 25 35 70 6 99 -19 19 -33 20 -474 20 l-455 0 -20 -26z" fill="#1e6fd9"/>
</g>
</svg>
