<?xml version="1.0" standalone="no"?>
<!DOCTYPE svg PUBLIC "-//W3C//DTD SVG 20010904//EN"
 "http://www.w3.org/TR/2001/REC-SVG-20010904/DTD/svg10.dtd">
<svg version="1.0" xmlns="http://www.w3.org/2000/svg"
 width="512.000000pt" height="512.000000pt" viewBox="0 0 512.000000 512.000000"
 preserveAspectRatio="xMidYMid meet">

<g transform="translate(0.000000,512.000000) scale(0.100000,-0.100000)"
fill="#1e6fd9" stroke="none">
<path d="M2386 4688 c-14 -13 -74 -108 -134 -213 l-109 -190 -479 -6 c-396 -5
-489 -8 -534 -22 -272 -78 -450 -241 -537 -492 -26 -76 -27 -92 -31 -290 -4
-226 4 -311 42 -423 102 -300 327 -516 633 -609 83 -25 103 -26 336 -31 185
-3 247 -7 244 -16 -3 -6 -75 -119 -162 -251 -86 -132 -174 -274 -195 -315
-143 -284 -144 -624 -3 -909 26 -53 49 -99 51 -102 2 -4 -28 -12 -65 -18 -190
-32 -328 -172 -349 -355 -6 -46 -4 -56 15 -75 l21 -21 1693 0 c1601 0 1695 1
1709 18 12 13 17 56 22 186 7 188 -1 224 -55 251 -43 23 -78 18 -182 -24 -54
-22 -97 -36 -97 -31 0 5 16 59 35 120 40 129 42 144 16 186 -30 50 -67 59
-176 46 -149 -19 -143 -22 -91 50 131 181 148 211 143 251 -6 46 -37 83 -81
96 -17 5 -89 20 -161 32 -71 12 -131 23 -133 24 -2 1 64 51 146 110 83 59 155
118 161 132 18 40 13 95 -12 125 -14 17 -77 51 -172 93 -82 37 -161 73 -173
79 -22 12 -13 18 150 112 222 127 233 137 233 204 0 67 -11 77 -233 204 -94
54 -172 100 -172 101 0 2 84 51 186 110 205 119 229 141 220 208 -2 22 -14 50
-27 63 -12 13 -109 73 -216 135 -106 61 -193 113 -193 115 0 2 61 95 135 207
144 216 152 235 119 298 -8 17 -30 36 -47 44 -18 7 -125 18 -251 26 -169 10
-223 17 -237 29 -16 13 -19 39 -24 235 -4 121 -11 235 -17 252 -13 45 -52 73
-100 73 -48 0 -52 -2 -272 -140 -172 -108 -179 -111 -196 -93 -9 10 -65 102
-124 205 -59 103 -119 197 -133 208 -36 28 -104 27 -137 -2z m168 -267 c42
-73 75 -135 73 -138 -2 -2 -81 -2 -175 -1 l-171 3 86 148 c69 119 88 146 98
135 7 -7 47 -73 89 -147z m691 -339 c-2 -2 -24 10 -49 27 -48 33 -170 94 -208
104 -12 4 -20 8 -18 11 3 2 64 40 135 85 l130 80 6 -152 c4 -84 5 -154 4 -155z
m-396 50 c339 -89 585 -337 678 -684 15 -55 17 -165 23 -913 7 -912 7 -898 61
-1095 53 -190 138 -371 251 -537 80 -117 233 -284 345 -373 l74 -60 -787 0
-787 0 27 21 c42 33 114 141 143 215 23 60 27 88 31 207 4 122 2 140 -13 157
-25 27 -70 26 -89 -2 -12 -17 -16 -49 -16 -129 0 -182 -60 -310 -183 -392
-114 -76 -71 -72 -765 -75 l-624 -3 7 23 c20 64 74 127 135 158 20 10 99 31
176 45 157 30 184 43 184 83 0 15 -21 122 -46 237 -39 181 -45 222 -42 297 4
75 9 96 41 161 74 149 218 237 388 237 55 0 57 -1 83 -40 102 -155 330 -155
432 0 l27 40 131 0 c146 0 176 10 176 57 0 55 -20 63 -162 63 l-128 0 0 35 0
35 123 0 c95 0 128 4 145 16 26 18 29 60 5 86 -14 16 -34 18 -185 18 -214 0
-208 4 -208 -142 0 -84 -4 -109 -20 -135 -56 -92 -177 -94 -237 -4 -22 32 -23
44 -23 213 0 200 10 241 74 295 59 50 82 54 339 60 260 6 277 10 277 59 0 28
-23 52 -58 61 -14 3 -125 3 -247 0 -250 -8 -292 -16 -371 -76 -51 -38 -107
-121 -124 -181 -5 -19 -10 -103 -10 -186 l0 -151 -83 -6 c-184 -13 -338 -107
-432 -262 -77 -129 -93 -263 -55 -450 11 -54 18 -100 16 -103 -8 -7 -56 157
-67 231 -15 92 -5 261 19 352 41 152 52 171 336 604 91 139 166 261 166 270 0
10 -6 26 -14 37 -14 18 -33 19 -328 25 -344 6 -370 10 -505 74 -90 42 -152 84
-222 150 -54 50 -141 159 -141 176 0 5 206 9 479 9 469 0 479 0 505 21 30 23
33 54 9 81 -15 17 -45 18 -534 18 -486 0 -519 1 -528 18 -41 76 -58 480 -26
607 61 241 273 431 520 465 33 4 395 7 805 6 731 -2 747 -3 829 -24z m854
-338 c85 -5 107 -9 103 -20 -7 -18 -165 -254 -170 -254 -3 0 -14 28 -25 63
-12 34 -41 99 -65 145 l-44 84 46 -6 c26 -3 96 -8 155 -12z m191 -720 c102
-60 110 -42 -59 -139 -55 -32 -115 -66 -132 -77 l-33 -20 0 182 0 182 68 -38
c37 -21 107 -61 156 -90z m-12 -604 c54 -30 98 -57 98 -60 0 -3 -44 -30 -98
-60 -53 -30 -123 -70 -154 -88 l-58 -33 0 181 0 181 58 -33 c31 -18 101 -58
154 -88z m-52 -557 c71 -32 129 -62 127 -66 -1 -5 -61 -51 -132 -102 -123 -88
-130 -92 -138 -72 -5 12 -11 87 -14 166 -6 132 -5 144 11 138 9 -4 75 -32 146
-64z m188 -527 c3 -3 -134 -201 -159 -230 -11 -12 -119 237 -119 273 0 8 269
-34 278 -43z m118 -495 c-17 -55 -34 -97 -38 -95 -13 8 -128 155 -128 164 0 6
89 21 181 29 14 1 12 -14 -15 -98z m304 -218 c0 -16 -3 -51 -6 -80 l-7 -52
-68 47 c-38 26 -65 50 -61 54 7 7 122 56 135 57 4 1 7 -11 7 -26z"/>
<path d="M1973 4015 c-102 -31 -185 -104 -232 -204 -22 -48 -26 -69 -26 -151
0 -87 3 -101 32 -161 101 -204 352 -270 540 -143 61 42 94 83 131 162 22 48
27 71 26 142 0 91 -17 144 -71 223 -79 114 -264 175 -400 132z m186 -120 c61
-21 104 -58 137 -117 36 -66 40 -160 9 -223 -38 -78 -135 -145 -210 -145 -20
0 -17 5 20 43 104 104 77 270 -55 340 -48 25 -63 28 -118 24 l-63 -5 23 25
c60 65 169 89 257 58z m-150 -209 c56 -29 66 -99 22 -148 -24 -27 -36 -33 -70
-33 -91 0 -131 105 -63 166 36 32 69 36 111 15z"/>
</g>
</svg>
