<?xml version="1.0" standalone="no"?>
<!DOCTYPE svg PUBLIC "-//W3C//DTD SVG 20010904//EN"
 "http://www.w3.org/TR/2001/REC-SVG-20010904/DTD/svg10.dtd">
<svg version="1.0" xmlns="http://www.w3.org/2000/svg"
 width="512.000000pt" height="512.000000pt" viewBox="0 0 512.000000 512.000000"
 preserveAspectRatio="xMidYMid meet">
<metadata>
Created by potrace 1.16, written by Peter Selinger 2001-2019
</metadata>
<g transform="translate(0.000000,512.000000) scale(0.100000,-0.100000)"
fill="#1e6fd9" stroke="none">
<path d="M2240 5105 c-300 -37 -608 -133 -870 -272 -118 -62 -268 -157 -287
-182 -40 -52 -17 -132 44 -158 48 -19 68 -13 182 59 204 131 511 257 741 307
234 50 563 67 775 41 526 -65 991 -286 1369 -650 308 -296 542 -697 645 -1106
58 -228 65 -295 65 -584 0 -289 -7 -356 -65 -584 -105 -416 -341 -817 -660
-1120 -590 -561 -1412 -775 -2203 -575 -656 166 -1228 632 -1526 1244 -165
338 -229 600 -237 971 -6 232 3 344 43 543 50 252 177 563 315 777 48 75 64
107 64 134 0 50 -27 87 -74 101 -62 18 -95 -4 -166 -114 -206 -318 -341 -705
-386 -1106 -18 -159 -7 -546 20 -694 101 -568 343 -1025 752 -1422 402 -390
905 -632 1459 -700 163 -20 477 -20 640 0 472 58 914 246 1290 548 212 170
444 435 585 667 181 296 307 660 350 1010 20 163 20 477 0 640 -57 457 -246
910 -532 1273 -73 93 -327 347 -420 420 -364 287 -815 475 -1273 532 -152 18
-490 18 -640 0z"/>
<path d="M2300 4609 c-936 -120 -1673 -860 -1789 -1799 -6 -46 -11 -159 -11
-250 0 -243 28 -432 95 -635 226 -688 792 -1211 1487 -1373 179 -42 228 -47
483 -47 195 1 270 4 343 18 440 83 809 275 1111 578 303 302 494 670 578 1111
25 133 25 563 0 696 -43 227 -112 427 -209 612 -316 600 -904 1006 -1578 1089
-97 13 -414 12 -510 0z m410 -203 c218 -12 452 -78 680 -193 197 -99 308 -180
475 -348 153 -152 243 -272 325 -426 l50 -97 -72 14 c-807 156 -1740 189
-2588 93 -178 -20 -497 -67 -628 -93 l-72 -14 50 97 c82 154 172 274 325 426
167 168 278 249 476 348 231 117 463 181 704 196 66 4 134 6 150 4 17 -1 73
-4 125 -7z m150 -1116 c305 -12 756 -52 868 -76 45 -9 139 -259 168 -447 17
-104 16 -400 -1 -440 -4 -10 -56 -42 -114 -72 -172 -86 -282 -166 -422 -305
-196 -195 -312 -377 -394 -620 -20 -59 -26 -66 -60 -78 -166 -56 -521 -56
-691 0 -33 11 -40 19 -50 55 -20 70 -84 212 -135 301 -80 138 -137 211 -268
342 -140 139 -250 219 -422 305 -58 30 -110 62 -114 72 -17 40 -18 336 -1 440
29 187 123 437 168 447 38 9 362 44 518 57 330 26 623 32 950 19z m-1766 -182
c-29 -75 -70 -238 -84 -333 -5 -38 -10 -143 -10 -233 l0 -162 -22 5 c-80 18
-122 25 -190 31 l-78 7 0 151 c0 83 7 196 15 251 16 106 53 265 65 278 6 7
276 65 312 66 15 1 14 -6 -8 -61z m3080 32 c82 -16 153 -33 157 -37 10 -12 56
-217 68 -306 6 -43 11 -145 11 -226 l0 -148 -77 -7 c-69 -6 -110 -13 -189 -31
-21 -5 -22 -2 -27 203 -6 225 -23 325 -85 500 -17 48 -25 82 -18 82 6 0 78
-14 160 -30z m-3267 -956 c265 -54 507 -186 709 -388 251 -252 394 -564 411
-898 7 -128 14 -124 -119 -73 -130 51 -308 145 -418 223 -124 87 -355 318
-442 442 -78 110 -172 288 -223 418 -30 77 -85 268 -85 296 0 9 56 3 167 -20z
m3473 20 c0 -3 -11 -50 -25 -103 -51 -203 -159 -435 -283 -611 -86 -123 -318
-355 -442 -443 -103 -73 -350 -200 -469 -242 l-74 -26 6 113 c27 585 458 1113
1036 1272 111 31 251 53 251 40z m-2065 -1189 c105 -19 384 -19 490 0 43 8 80
13 80 12 1 -1 -1 -68 -3 -149 l-4 -146 -47 -7 c-132 -21 -410 -21 -543 0 l-48
7 0 112 c0 61 -3 128 -6 149 -4 20 -5 37 -3 37 2 0 40 -7 84 -15z"/>
<path d="M2408 3041 c-214 -69 -348 -254 -348 -481 0 -287 213 -500 500 -500
287 0 500 213 500 500 0 227 -136 415 -349 480 -83 26 -223 26 -303 1z m256
-207 c55 -19 132 -90 161 -149 15 -30 20 -61 20 -125 0 -99 -17 -142 -80 -205
-63 -63 -106 -80 -205 -80 -99 0 -142 17 -205 80 -55 54 -78 107 -83 187 -9
139 59 242 193 295 44 17 144 15 199 -3z"/>
<path d="M747 4372 c-37 -39 -38 -108 -2 -145 76 -75 198 -8 177 98 -14 74
-121 103 -175 47z"/>
</g>
</svg>
